<?xml version="1.0" encoding="utf-8"?>
<!-- Generator: Adobe Illustrator 15.0.2, SVG Export Plug-In . SVG Version: 6.00 Build 0)  -->
<!DOCTYPE svg PUBLIC "-//W3C//DTD SVG 1.1//EN" "http://www.w3.org/Graphics/SVG/1.1/DTD/svg11.dtd">
<svg version="1.1" id="Layer_1" xmlns="http://www.w3.org/2000/svg" xmlns:xlink="http://www.w3.org/1999/xlink" x="0px" y="0px"
	 width="1024px" height="1024px" viewBox="0 0 1024 1024" enable-background="new 0 0 1024 1024" xml:space="preserve">
<path fill="#2196f3" d="M819.2,0H204.8C92.2,0,0,92.2,0,204.8v614.4C0,931.8,92.2,1024,204.8,1024h614.4c112.6,0,204.8-92.2,204.8-204.8V204.8
	C1024,92.2,931.8,0,819.2,0z M536.4,764.8H464.6V609.6H324.2v155.2h-71.8v-355h71.8V549.4H464.6V409.8H536.4V764.8z M638.6,409.8
	L394.4,288.4L150.2,409.8L128,365.2L394.2,233v-0.4h0.2h0.199v0.4l266,132.2L638.6,409.8z M871.4,367.2c-4.801,0-11-0.6-17.601-2.2
	c-7.2-1.8-14.6-3.6-23-6.2c-8-2.2-16-4.4-23.399-6.2c-7.4-1.6-13.601-2.4-18.4-2.4c-2.4,0-6.4,0.6-11.6,1.8
	c-5.4,1.2-11,2.8-16.601,4.8c-5.8,2-11,4-15.6,5.8c-3.4,1.2-5.8,1.6-8,1.8v427H714V247.8h23v17.6c18.8-7.4,36.4-11.4,53-11.4
	c5,0,10.8,0.8,17.8,2.6c7,1.6,14.601,3.6,22.601,6c8.399,2.6,15.8,4.8,23,6.2c6.8,1.6,12.8,2.6,17.6,2.6c9.2,0,17.2-1.6,24.6-4.8
	v97.2h0.4C887,366.2,878.8,367.2,871.4,367.2z"/>
</svg>
