<?xml version="1.0" encoding="utf-8"?>
<!-- Generator: Adobe Illustrator 15.0.2, SVG Export Plug-In . SVG Version: 6.00 Build 0)  -->
<!DOCTYPE svg PUBLIC "-//W3C//DTD SVG 1.1//EN" "http://www.w3.org/Graphics/SVG/1.1/DTD/svg11.dtd">
<svg version="1.1" id="Layer_1" xmlns="http://www.w3.org/2000/svg" xmlns:xlink="http://www.w3.org/1999/xlink" x="0px" y="0px"
	 width="1024px" height="1024px" viewBox="0 0 1024 1024" enable-background="new 0 0 1024 1024" xml:space="preserve">
<path fill="#2196f3" d="M819.2,0H204.8C92.2,0,0,92.2,0,204.8v614.4C0,931.8,92.2,1024,204.8,1024h614.4c112.6,0,204.8-92.2,204.8-204.8V204.8
	C1024,92.2,931.8,0,819.2,0z M716.8,895.8H613.2v-224H410.8v223.8H307.2v-512h103.6V585h202.4V383.8h103.6V895.8z M864,383.8
	l-352-175l-352,175l-32-64.4l383.6-190.6l0.2-0.4l0.4,0.2l0.399-0.2l0.2,0.4L896,319.4L864,383.8z"/>
</svg>
